<?xml version="1.0" encoding="UTF-8" standalone="no"?>
<!-- Generator: Adobe Illustrator 24.1.1, SVG Export Plug-In . SVG Version: 6.00 Build 0)  -->

<svg
   version="1.1"
   id="Layer_1"
   x="0px"
   y="0px"
   viewBox="0 0 1080 1080"
   style="enable-background:new 0 0 1080 1080;"
   xml:space="preserve"
   sodipodi:docname="Keras.svg"
   inkscape:version="1.1.2 (0a00cf5339, 2022-02-04)"
   xmlns:inkscape="http://www.inkscape.org/namespaces/inkscape"
   xmlns:sodipodi="http://sodipodi.sourceforge.net/DTD/sodipodi-0.dtd"
   xmlns="http://www.w3.org/2000/svg"
   xmlns:svg="http://www.w3.org/2000/svg"><defs
   id="defs19" /><sodipodi:namedview
   id="namedview17"
   pagecolor="#ffffff"
   bordercolor="#666666"
   borderopacity="1.0"
   inkscape:pageshadow="2"
   inkscape:pageopacity="0.0"
   inkscape:pagecheckerboard="0"
   showgrid="false"
   inkscape:zoom="0.66574074"
   inkscape:cx="759.30459"
   inkscape:cy="540.75104"
   inkscape:window-width="1904"
   inkscape:window-height="1115"
   inkscape:window-x="8"
   inkscape:window-y="40"
   inkscape:window-maximized="0"
   inkscape:current-layer="Layer_1" />
<style
   type="text/css"
   id="style2">
	.st0{fill:#FFFFFF;}
	.st1{fill:#D00000;}
</style>

<g
   id="g10"
   transform="matrix(1.0563774,0,0,1.0511339,-32.476779,-26.452988)">
	<path
   class="st1"
   d="m 1062,1061.96 c 0,0.02 -0.02,0.04 -0.04,0.04 H 18.04 c -0.02,0 -0.04,-0.02 -0.04,-0.04 V 18.04 C 18,18.02 18.02,18 18.04,18 h 1043.93 c 0.02,0 0.04,0.02 0.04,0.04 v 1043.92 z"
   id="path8"
   style="fill:#5d5d5d;fill-opacity:1" />
</g>
<g
   id="g14">
	<path
   class="st0"
   d="M303,823.67c0,0.79,0.46,1.89,1.01,2.44l17.87,17.87c0.56,0.56,1.66,1.01,2.44,1.01h61.15   c0.79,0,1.89-0.46,2.44-1.01l17.87-17.87c0.56-0.56,1.01-1.66,1.01-2.44V629.64c0-0.79,0.47-1.88,1.04-2.42l77.69-74.2   c0.57-0.54,1.4-0.46,1.84,0.2l196.29,290.6c0.44,0.65,1.45,1.19,2.23,1.19h86.63c0.79,0,1.73-0.57,2.09-1.27l15.72-30.46   c0.36-0.7,0.29-1.8-0.16-2.45L560.56,478.03c-0.45-0.65-0.36-1.63,0.2-2.19l211.18-210.19c0.56-0.56,1.01-1.65,1.01-2.44v-3.88   c0-0.79-0.26-2.02-0.57-2.75l-12.18-28.01c-0.31-0.72-1.22-1.31-2-1.31h-85.63c-0.79,0-1.89,0.46-2.44,1.01l-262.31,263.3   c-0.56,0.56-1.01,0.37-1.01-0.42V249.6c0-0.79-0.44-1.9-0.98-2.48l-17.53-18.8c-0.54-0.58-1.62-1.05-2.41-1.05h-61.57   c-0.79,0-1.87,0.47-2.41,1.05l-17.95,19.38c-0.54,0.58-0.97,1.69-0.97,2.48V823.67z"
   id="path12" />
</g>
</svg>
