<?xml version="1.0" encoding="UTF-8" standalone="no"?>
<svg
   width="590"
   height="540"
   version="1.1"
   id="svg882"
   sodipodi:docname="Slurm_logo.svg"
   inkscape:version="1.1.2 (0a00cf5339, 2022-02-04)"
   xmlns:inkscape="http://www.inkscape.org/namespaces/inkscape"
   xmlns:sodipodi="http://sodipodi.sourceforge.net/DTD/sodipodi-0.dtd"
   xmlns="http://www.w3.org/2000/svg"
   xmlns:svg="http://www.w3.org/2000/svg">
  <defs
     id="defs886" />
  <sodipodi:namedview
     id="namedview884"
     pagecolor="#ffffff"
     bordercolor="#666666"
     borderopacity="1.0"
     inkscape:pageshadow="2"
     inkscape:pageopacity="0.0"
     inkscape:pagecheckerboard="0"
     showgrid="false"
     inkscape:zoom="0.8"
     inkscape:cx="313.125"
     inkscape:cy="291.25"
     inkscape:window-width="1920"
     inkscape:window-height="1131"
     inkscape:window-x="0"
     inkscape:window-y="32"
     inkscape:window-maximized="1"
     inkscape:current-layer="svg882" />
  <path
     fill="#42afeb"
     d="m 275.06766,105.15351 c -10.92757,0 -19.78333,8.82904 -19.78333,19.7236 v 0 37.96292 c 0,10.88692 8.85576,19.7265 19.78333,19.7265 v 0 h 39.294 c 10.92759,0 19.79777,-8.83958 19.79777,-19.7265 v 0 -37.96292 c 0,-10.89456 -8.87018,-19.7236 -19.79777,-19.7236 v 0 z m 96.58278,60.06815 c -8.20819,0 -14.86496,6.75197 -14.86496,15.05837 v 0 28.96864 c 0,8.31505 6.65677,15.06219 14.86496,15.06219 v 0 h 29.5228 c 8.20915,0 14.86013,-6.74714 14.86013,-15.06219 v 0 -28.96864 c 0,-8.3064 -6.65098,-15.05837 -14.86013,-15.05837 v 0 z m -183.39528,0 c -8.20536,0 -14.86305,6.75197 -14.86305,15.05837 v 0 28.96864 c 0,8.31505 6.65769,15.06219 14.86305,15.06219 v 0 h 29.52078 c 8.20436,0 14.86497,-6.74714 14.86497,-15.06219 v 0 -28.96864 c 0,-8.3064 -6.66061,-15.05837 -14.86497,-15.05837 v 0 z m 86.8125,33.22752 c -10.92757,0 -19.78333,8.82424 -19.78333,19.72555 v 0 37.96004 c 0,10.89267 8.85576,19.72938 19.78333,19.72938 v 0 h 39.294 c 10.92759,0 19.79777,-8.83671 19.79777,-19.72938 v 0 -37.96004 c 0,-10.90131 -8.87018,-19.72555 -19.79777,-19.72555 v 0 z m 172.52847,17.79641 c -6.10458,0 -11.05285,5.01305 -11.05285,11.20395 v 0 21.54995 c 0,6.17744 4.94827,11.19432 11.05285,11.19432 v 0 h 21.96307 c 6.10078,0 11.05285,-5.01688 11.05285,-11.19432 v 0 -21.54995 c 0,-6.1909 -4.95207,-11.20395 -11.05285,-11.20395 v 0 z m -326.75658,0 c -6.10273,0 -11.05669,5.01305 -11.05669,11.20395 v 0 21.54995 c 0,6.17744 4.95396,11.19432 11.05669,11.19432 v 0 h 21.95627 c 6.11043,0 11.05865,-5.01688 11.05865,-11.19432 v 0 -21.54995 c 0,-6.1909 -4.94822,-11.20395 -11.05865,-11.20395 v 0 z m 250.81089,22.68073 c -8.20819,0 -14.86496,6.74139 -14.86496,15.04875 v 0 28.97824 c 0,8.30834 6.65677,15.05259 14.86496,15.05259 v 0 h 29.5228 c 8.20915,0 14.86013,-6.74425 14.86013,-15.05259 v 0 -28.97824 c 0,-8.30736 -6.65098,-15.04875 -14.86013,-15.04875 v 0 z m -183.39528,0 c -8.20536,0 -14.86305,6.74139 -14.86305,15.04875 v 0 28.97824 c 0,8.30834 6.65769,15.05259 14.86305,15.05259 v 0 h 29.52078 c 8.20436,0 14.86497,-6.74425 14.86497,-15.05259 v 0 -28.97824 c 0,-8.30736 -6.66061,-15.04875 -14.86497,-15.04875 v 0 z m 259.34097,36.50454 c -6.10458,0 -11.05285,5.01017 -11.05285,11.19337 v 0 21.55091 c 0,6.17842 4.94827,11.19626 11.05285,11.19626 v 0 h 21.96307 c 6.10078,0 11.05285,-5.01784 11.05285,-11.19626 v 0 -21.55091 c 0,-6.1832 -4.95207,-11.19337 -11.05285,-11.19337 v 0 z m -326.75658,0 c -6.10273,0 -11.05669,5.01017 -11.05669,11.19337 v 0 21.55091 c 0,6.17842 4.95396,11.19626 11.05669,11.19626 v 0 h 21.95627 c 6.11043,0 11.05865,-5.01784 11.05865,-11.19626 v 0 -21.55091 c 0,-6.1832 -4.94822,-11.19337 -11.05865,-11.19337 v 0 z m 154.22811,15.50221 c -10.92757,0 -19.78333,8.83287 -19.78333,19.72842 v 0 37.96292 c 0,10.89363 8.85576,19.71978 19.78333,19.71978 v 0 h 39.294 c 10.92759,0 19.79777,-8.82615 19.79777,-19.71978 v 0 -37.96292 c 0,-10.89555 -8.87018,-19.72842 -19.79777,-19.72842 v 0 z m 237.43478,16.21891 c -4.53962,0 -8.21206,3.72567 -8.21206,8.31505 v 0 15.99696 c 0,4.58938 3.67244,8.30834 8.21206,8.30834 v 0 h 16.30179 c 4.52614,0 8.19564,-3.71896 8.19564,-8.30834 v 0 -15.99696 c 0,-4.58938 -3.6695,-8.31505 -8.19564,-8.31505 v 0 z m -450.904045,0 c -4.532916,0 -8.205313,3.72567 -8.205313,8.31505 v 0 15.99696 c 0,4.58938 3.672397,8.30834 8.205313,8.30834 v 0 h 16.295001 c 4.535818,0 8.207257,-3.71896 8.207257,-8.30834 v 0 -15.99696 c 0,-4.58938 -3.671439,-8.31505 -8.207257,-8.31505 v 0 z m 310.052045,5.49246 c -8.20819,0 -14.86496,6.73656 -14.86496,15.04585 v 0 28.97247 c 0,8.31507 6.65677,15.0574 14.86496,15.0574 v 0 h 29.5228 c 8.20915,0 14.86013,-6.74233 14.86013,-15.0574 v 0 -28.97247 c 0,-8.30929 -6.65098,-15.04585 -14.86013,-15.04585 v 0 z m -183.39528,0 c -8.20536,0 -14.86305,6.73656 -14.86305,15.04585 v 0 28.97247 c 0,8.31507 6.65769,15.0574 14.86305,15.0574 v 0 h 29.52078 c 8.20436,0 14.86497,-6.74233 14.86497,-15.0574 v 0 -28.97247 c 0,-8.30929 -6.66061,-15.04585 -14.86497,-15.04585 v 0 z m 259.34097,22.41362 c -6.10458,0 -11.05285,5.02361 -11.05285,11.21258 v 0 21.54515 c 0,6.18993 4.94827,11.19433 11.05285,11.19433 v 0 h 21.96307 c 6.10078,0 11.05285,-5.0044 11.05285,-11.19433 v 0 -21.54515 c 0,-6.18897 -4.95207,-11.21258 -11.05285,-11.21258 v 0 z m -326.75658,0 c -6.10273,0 -11.05669,5.02361 -11.05669,11.21258 v 0 21.54515 c 0,6.18993 4.95396,11.19433 11.05669,11.19433 v 0 h 21.95627 c 6.11043,0 11.05865,-5.0044 11.05865,-11.19433 v 0 -21.54515 c 0,-6.18897 -4.94822,-11.21258 -11.05865,-11.21258 v 0 z m 391.66289,20.81597 c -4.53962,0 -8.21206,3.72183 -8.21206,8.3112 v 0 15.99698 c 0,4.5807 3.67244,8.31504 8.21206,8.31504 v 0 h 16.30179 c 4.52614,0 8.19564,-3.73434 8.19564,-8.31504 v 0 -15.99698 c 0,-4.58937 -3.6695,-8.3112 -8.19564,-8.3112 v 0 z m -450.904045,0 c -4.532916,0 -8.205313,3.72183 -8.205313,8.3112 v 0 15.99698 c 0,4.5807 3.672397,8.31504 8.205313,8.31504 v 0 h 16.295001 c 4.535818,0 8.207257,-3.73434 8.207257,-8.31504 v 0 -15.99698 c 0,-4.58937 -3.671439,-8.3112 -8.207257,-8.3112 v 0 z m 504.722835,15.98449 c -3.42182,0 -6.20193,2.80722 -6.20193,6.27159 v 0 12.06859 c 0,3.45379 2.78011,6.26678 6.20193,6.26678 v 0 h 12.29592 c 3.40841,0 6.18652,-2.81299 6.18652,-6.26678 v 0 -12.06859 c 0,-3.46437 -2.77811,-6.27159 -6.18652,-6.27159 v 0 z m -554.534838,0 c -3.4199254,0 -6.1961459,2.80722 -6.1961459,6.27159 v 0 12.06859 c 0,3.45379 2.7762205,6.26678 6.1961459,6.26678 v 0 h 12.288222 c 3.420889,0 6.189398,-2.81299 6.189398,-6.26678 v 0 -12.06859 c 0,-3.46437 -2.768509,-6.27159 -6.189398,-6.27159 v 0 z"
     id="path876"
     style="stroke-width:1.09094;fill:#5d5d5d;fill-opacity:1" />
</svg>
